# xmcd
# 
# Track frame offsets:
#     187
#     39652
#     96247
#     132614
#     181827
# 
# Disc length: 2681
# 
# Revision: 1
# Processed by: cddbd v1.5.2PL0 Copyright (c) Steve Scherf et al.
# Submitted via: BonkEnc v1.0.8
# 
DISCID=410a7705
DTITLE=Patrice Rushen - Prelusion
DYEAR=1974
DGENRE=Contemporary Jazz
TTITLE0=Shortie's Portion
TTITLE1=7/73
TTITLE2=How Right Now
TTITLE3=Traverse
TTITLE4=Puttered Bopcorn
EXTD=YEAR: 1974
EXTT0=
EXTT1=
EXTT2=
EXTT3=
EXTT4=
PLAYORDER=
